<?xml version="1.0" encoding="utf-8"?>
<!-- Generator: Adobe Illustrator 25.2.3, SVG Export Plug-In . SVG Version: 6.00 Build 0)  -->
<svg version="1.1" id="레이어_1" xmlns="http://www.w3.org/2000/svg" xmlns:xlink="http://www.w3.org/1999/xlink" x="0px"
	 y="0px" viewBox="0 0 64 64" style="enable-background:new 0 0 64 64;" xml:space="preserve">
<style type="text/css">
	.st0{fill:#343434;}
	.st1{fill:#FF0000;}
</style>
<path id="합치기_2_-_윤곽선" class="st0" d="M32.6,48.6c-0.2,0-0.3-0.1-0.4-0.2l-3.5-6H22c-2.5,0-4.5-2-4.5-4.5V26
	c0-2.5,2-4.5,4.5-4.5h20.1c2.5,0,4.5,2,4.5,4.5v11.8c0,2.5-2,4.5-4.5,4.5h-5.5l-3.5,6C33,48.5,32.8,48.6,32.6,48.6z M22,22.5
	c-1.9,0-3.5,1.6-3.5,3.5v11.8c0,1.9,1.6,3.5,3.5,3.5h7c0.2,0,0.3,0.1,0.4,0.2l3.2,5.5l3.2-5.5c0.1-0.2,0.3-0.2,0.4-0.2h5.8
	c1.9,0,3.5-1.6,3.5-3.5V26c0-1.9-1.6-3.5-3.5-3.5H22z"/>
<circle id="타원_205" class="st0" cx="26.5" cy="31.5" r="1.5"/>
<circle id="타원_206" class="st0" cx="32.5" cy="31.5" r="1.5"/>
<circle id="타원_207" class="st0" cx="38.5" cy="31.5" r="1.5"/>
<circle id="타원_212" class="st1" cx="47.5" cy="18.5" r="2.5"/>
</svg>
